<?xml version="1.0" standalone="no"?>
<!DOCTYPE svg PUBLIC "-//W3C//DTD SVG 1.0//EN" "http://www.w3.org/TR/2001/REC-SVG-20010904/DTD/svg10.dtd">
<svg xmlns="http://www.w3.org/2000/svg" xmlns:xlink="http://www.w3.org/1999/xlink" id="body_1" width="1728" height="2127">

<g transform="matrix(3.9981203 0 0 3.9981203 0.81199616 -0)">
	<g transform="matrix(0.1 0 -0 -0.1 0 532)">
        <path d="M2440 4274C 2205 4231 1988 4139 1759 3988C 1614 3893 1439 3725 1370 3617C 1339 3569 1322 3550 1311 3554C 1302 3557 1255 3574 1205 3594C 1027 3662 839 3700 672 3700C 541 3700 504 3686 494 3634C 478 3546 513 3345 575 3170C 636 3000 746 2806 823 2731L823 2731L858 2698L798 2642C 724 2573 666 2491 607 2375C 451 2063 394 1600 488 1410C 511 1362 523 1351 574 1326C 688 1268 914 1280 1140 1356C 1489 1473 1783 1725 1834 1952C 1840 1977 1849 2000 1855 2002C 1860 2003 1877 1969 1893 1925C 1990 1658 2041 1526 2107 1370C 2206 1138 2327 888 2347 873C 2385 844 2491 875 2523 924C 2537 944 2545 946 2592 942C 2631 939 2649 942 2658 952C 2686 986 2816 1455 2855 1665C 2878 1790 2878 1789 2905 1733C 2994 1555 3243 1417 3524 1391C 3699 1374 3849 1412 3887 1482C 3915 1533 3910 1687 3876 1815C 3824 2014 3692 2236 3571 2324C 3543 2345 3520 2364 3520 2367C 3520 2370 3529 2385 3541 2401C 3653 2558 3731 2999 3659 3071C 3633 3097 3574 3095 3459 3066C 3354 3039 3225 2987 3152 2942L3152 2942L3104 2913L3051 2971C 3022 3004 2957 3058 2906 3091L2906 3091L2813 3153L2833 3244C 2862 3373 2864 3753 2837 3879C 2798 4059 2739 4185 2666 4244C 2633 4271 2622 4274 2547 4276C 2502 4277 2454 4276 2440 4274zM2599 4240C 2784 4187 2885 3672 2797 3235C 2788 3192 2781 3176 2770 3177C 2762 3178 2716 3195 2668 3215C 2499 3285 2313 3317 2190 3298C 2154 3292 2116 3287 2105 3288C 2074 3288 2000 3302 2000 3307C 2000 3310 2023 3357 2052 3413C 2163 3630 2332 3851 2441 3922C 2487 3952 2498 3969 2473 3977C 2455 3983 2343 3891 2280 3817C 2195 3718 2092 3559 2020 3420L2020 3420L1961 3303L1913 3296C 1844 3287 1750 3254 1697 3220L1697 3220L1650 3191L1644 3218C 1632 3266 1590 3341 1549 3385C 1518 3419 1430 3485 1361 3527C 1352 3532 1429 3646 1482 3706C 1568 3802 1662 3883 1785 3965C 2060 4150 2453 4282 2599 4240zM930 3640C 1305 3559 1559 3400 1609 3216C 1619 3178 1618 3175 1580 3133C 1536 3086 1494 3004 1485 2950C 1480 2915 1479 2915 1438 2919C 1398 2922 1392 2927 1360 2977C 1286 3093 1035 3324 855 3443C 766 3502 670 3550 644 3550C 611 3550 635 3522 686 3500C 808 3450 1023 3288 1191 3120C 1270 3041 1368 2923 1359 2917C 1357 2916 1333 2907 1307 2897C 1238 2873 1132 2800 1049 2719L1049 2719L977 2650L946 2670C 905 2695 803 2801 761 2863C 676 2987 577 3237 540 3422C 508 3575 514 3645 560 3664C 591 3676 836 3661 930 3640zM2077 3257C 2080 3253 2074 3229 2062 3203C 2026 3118 2017 3040 2023 2875L2023 2875L2028 2721L1994 2677C 1950 2620 1888 2586 1830 2586C 1696 2587 1520 2776 1520 2920C 1520 3061 1669 3205 1868 3255C 1923 3269 2063 3270 2077 3257zM2422 3255C 2645 3208 2865 3102 2997 2977C 3079 2900 3079 2900 3015 2839C 2959 2786 2910 2704 2910 2663C 2910 2650 2909 2640 2908 2640C 2906 2640 2876 2649 2842 2660C 2807 2671 2757 2680 2732 2681L2732 2681L2685 2681L2625 2768C 2521 2918 2323 3099 2263 3100C 2233 3100 2255 3072 2311 3041C 2382 3000 2524 2857 2598 2751L2598 2751L2650 2677L2613 2664C 2571 2650 2530 2609 2530 2582C 2530 2572 2537 2538 2545 2507C 2553 2475 2560 2448 2560 2446C 2560 2444 2527 2427 2486 2406C 2433 2380 2396 2352 2355 2308L2355 2308L2297 2246L2260 2288C 2177 2385 2109 2536 2073 2700C 2048 2817 2048 3061 2072 3141C 2092 3203 2122 3247 2154 3260C 2189 3274 2343 3271 2422 3255zM3641 3038C 3657 3008 3654 2856 3635 2754C 3616 2655 3569 2513 3533 2451C 3505 2403 3443 2330 3429 2330C 3424 2330 3399 2346 3373 2366C 3316 2409 3249 2444 3192 2459C 3169 2466 3150 2475 3150 2480C 3150 2485 3178 2531 3212 2582C 3286 2692 3467 2883 3539 2925C 3567 2942 3590 2961 3590 2968C 3591 3024 3409 2881 3276 2721C 3222 2656 3119 2509 3108 2481C 3106 2477 3095 2470 3083 2466C 3065 2460 3059 2465 3042 2502C 3032 2526 3004 2563 2982 2585C 2934 2630 2931 2646 2964 2715C 3014 2823 3195 2948 3396 3014C 3549 3064 3623 3071 3641 3038zM1463 2881C 1478 2875 1490 2860 1494 2843C 1505 2802 1545 2736 1596 2679C 1638 2632 1640 2627 1640 2567C 1640 2473 1612 2423 1536 2385C 1479 2357 1470 2355 1356 2355C 1263 2355 1214 2360 1145 2378C 1036 2406 926 2458 922 2483C 913 2532 1109 2750 1225 2819C 1325 2880 1409 2901 1463 2881zM2076 2543C 2073 2539 1973 2577 1961 2587C 1958 2589 1976 2611 2000 2635L2000 2635L2044 2680L2062 2614C 2072 2577 2079 2545 2076 2543zM923 2647L958 2623L924 2570C 903 2537 890 2503 890 2483C 890 2454 896 2447 943 2420C 1004 2385 1126 2344 1199 2334C 1227 2330 1252 2324 1255 2321C 1257 2317 1218 2269 1169 2214C 932 1953 720 1657 720 1586C 720 1553 748 1572 765 1617C 804 1720 991 1969 1199 2198L1199 2198L1311 2320L1384 2320C 1484 2320 1548 2341 1607 2394L1607 2394L1656 2438L1694 2386C 1749 2313 1799 2203 1812 2128C 1842 1945 1729 1743 1506 1578C 1286 1417 965 1310 740 1323C 646 1329 578 1349 542 1382C 500 1422 476 1529 476 1670C 477 1931 554 2226 677 2435C 717 2504 862 2670 882 2670C 886 2670 905 2660 923 2647zM2845 2625C 3036 2558 3078 2412 2947 2264C 2901 2210 2845 2188 2794 2201C 2722 2221 2646 2320 2595 2462C 2554 2575 2563 2612 2635 2639C 2675 2653 2783 2646 2845 2625zM1731 2578C 1766 2560 1793 2555 1865 2555C 1942 2554 1965 2550 2025 2524C 2094 2494 2096 2492 2140 2411C 2165 2366 2206 2303 2232 2270L2232 2270L2279 2212L2248 2154C 2231 2123 2207 2065 2194 2026C 2173 1958 2171 1955 2143 1958C 2096 1964 1999 1989 1923 2016C 1851 2042 1850 2042 1850 2079C 1849 2180 1790 2325 1709 2422C 1673 2465 1670 2474 1670 2528C 1670 2576 1675 2600 1685 2600C 1686 2600 1706 2590 1731 2578zM3208 2420C 3239 2409 3295 2379 3332 2354C 3396 2311 3480 2230 3480 2212C 3480 2182 3326 2107 3220 2084C 3160 2071 3135 2071 3094 2080C 2988 2103 2947 2205 3009 2290C 3025 2312 3043 2353 3050 2380C 3057 2410 3068 2431 3078 2433C 3115 2443 3153 2439 3208 2420zM2696 2226C 2722 2200 2741 2178 2739 2177C 2737 2175 2708 2157 2675 2136C 2517 2034 2301 1819 2358 1820C 2362 1820 2415 1869 2476 1928C 2537 1988 2628 2064 2679 2098C 2756 2150 2778 2160 2814 2160C 2840 2160 2875 2169 2902 2184L2902 2184L2948 2208L2954 2169C 2959 2137 2955 2121 2936 2087C 2896 2020 2879 1961 2876 1885L2876 1885L2873 1815L2814 1783C 2706 1725 2518 1680 2371 1678C 2273 1676 2258 1682 2231 1731C 2180 1821 2195 1969 2272 2129C 2325 2239 2437 2357 2520 2387L2520 2387L2575 2408L2612 2340C 2633 2303 2670 2251 2696 2226zM3546 2302C 3714 2180 3868 1856 3873 1615C 3875 1512 3861 1483 3795 1450C 3748 1427 3736 1425 3600 1426C 3424 1427 3344 1446 3193 1520C 2918 1656 2840 1848 2968 2077L2968 2077L2980 2099L3016 2075C 3058 2047 3122 2035 3185 2044C 3229 2051 3232 2050 3308 1988C 3422 1895 3627 1693 3662 1638C 3679 1612 3697 1590 3701 1590C 3762 1590 3603 1780 3390 1960C 3329 2012 3280 2056 3280 2060C 3280 2063 3306 2075 3337 2085C 3368 2096 3420 2121 3452 2142C 3520 2186 3526 2210 3484 2266C 3462 2294 3460 2303 3470 2315C 3488 2336 3502 2334 3546 2302zM1950 1970C 1954 1970 2012 1860 2079 1725C 2203 1472 2311 1271 2433 1070C 2509 944 2509 939 2447 907C 2379 872 2367 883 2290 1043C 2116 1408 1889 1990 1926 1976C 1934 1973 1945 1970 1950 1970zM2060 1941C 2079 1936 2112 1929 2133 1925L2133 1925L2170 1919L2170 1864C 2170 1784 2188 1726 2225 1683L2225 1683L2258 1645L2356 1646C 2471 1646 2574 1662 2683 1697C 2727 1710 2764 1719 2767 1716C 2779 1704 2618 1248 2539 1072L2539 1072L2509 1006L2444 1115C 2332 1301 2211 1526 2108 1737C 2054 1847 2010 1941 2010 1944C 2010 1952 2019 1952 2060 1941zM2835 1728C 2833 1715 2816 1640 2799 1561C 2768 1414 2672 1069 2646 1005C 2634 977 2626 970 2602 970C 2587 970 2567 976 2558 983C 2543 994 2548 1011 2607 1150C 2657 1270 2757 1553 2815 1738C 2822 1760 2841 1751 2835 1728z" stroke="none" fill="#000000" fill-rule="nonzero" />
        <path d="M1944 3082C 1847 3011 1654 2772 1677 2749C 1684 2742 1708 2766 1758 2832C 1840 2942 1937 3043 1980 3065C 2010 3080 2016 3100 1994 3107C 1988 3109 1966 3098 1944 3082z" stroke="none" fill="#000000" fill-rule="nonzero" />
        <path d="M1340 2641C 1202 2594 1090 2545 1090 2530C 1090 2513 1113 2518 1241 2569C 1309 2596 1393 2626 1428 2635C 1465 2646 1490 2658 1490 2666C 1490 2687 1465 2683 1340 2641z" stroke="none" fill="#000000" fill-rule="nonzero" />
        <path d="M2670 2527C 2670 2521 2691 2504 2716 2490C 2742 2477 2799 2431 2844 2388C 2888 2345 2928 2310 2933 2310C 2971 2310 2854 2440 2756 2506C 2704 2541 2670 2550 2670 2527z" stroke="none" fill="#000000" fill-rule="nonzero" />
        <path d="M3072 2284C 3074 2270 3088 2263 3130 2257C 3160 2253 3223 2240 3269 2229C 3324 2215 3355 2211 3362 2218C 3369 2225 3366 2231 3354 2238C 3334 2248 3183 2284 3112 2295C 3073 2301 3069 2300 3072 2284z" stroke="none" fill="#000000" fill-rule="nonzero" />
	</g>
</g>
</svg>