<?xml version="1.0" standalone="no"?>
<!DOCTYPE svg PUBLIC "-//W3C//DTD SVG 1.0//EN" "http://www.w3.org/TR/2001/REC-SVG-20010904/DTD/svg10.dtd">
<svg xmlns="http://www.w3.org/2000/svg" xmlns:xlink="http://www.w3.org/1999/xlink" id="body_1" width="398" height="330">

<g transform="matrix(0.62737644 0 0 0.62737644 0.24334578 -0)">
	<g transform="matrix(0.1 0 -0 -0.1 0 526)">
        <path d="M1454 3380C 1374 3359 1263 3306 1180 3250C 1128 3214 1032 3120 1000 3073L1000 3073L985 3051L895 3082C 827 3105 780 3114 703 3118L703 3118L601 3123L590 3096C 562 3022 646 2773 730 2677L730 2677L759 2643L716 2597C 625 2499 566 2329 566 2160C 565 1990 592 1964 753 1972C 900 1980 1050 2048 1152 2153C 1193 2195 1230 2258 1230 2284C 1230 2292 1234 2301 1239 2304C 1244 2307 1262 2268 1280 2217C 1319 2104 1388 1940 1438 1840C 1479 1756 1506 1741 1547 1780C 1559 1791 1583 1800 1599 1800C 1628 1800 1630 1803 1655 1883C 1669 1928 1692 2017 1707 2081L1707 2081L1734 2197L1758 2161C 1771 2141 1792 2117 1803 2107C 1873 2049 2018 2004 2106 2013C 2182 2021 2218 2043 2226 2086C 2243 2176 2172 2360 2091 2439L2091 2439L2044 2485L2067 2525C 2114 2608 2137 2793 2104 2821C 2083 2839 2000 2821 1909 2779L1909 2779L1840 2747L1797 2786C 1773 2807 1742 2834 1727 2845C 1701 2864 1701 2867 1711 2910C 1725 2972 1725 3144 1710 3216C 1695 3288 1658 3363 1628 3384C 1599 3405 1542 3403 1454 3380zM1646 3341C 1684 3282 1701 3217 1707 3100C 1711 3012 1700 2887 1687 2873C 1685 2871 1652 2882 1614 2897C 1558 2918 1526 2924 1445 2926C 1390 2928 1337 2929 1327 2929C 1311 2930 1312 2935 1336 2983C 1379 3068 1431 3142 1488 3198C 1548 3257 1542 3269 1480 3214C 1439 3177 1349 3049 1312 2974C 1294 2940 1284 2931 1253 2925C 1233 2921 1199 2910 1179 2899L1179 2899L1141 2880L1134 2903C 1124 2938 1082 2989 1039 3017L1039 3017L1001 3042L1030 3085C 1130 3231 1397 3380 1557 3380C 1619 3380 1620 3379 1646 3341zM848 3080C 983 3042 1076 2985 1109 2918L1109 2918L1129 2877L1104 2845C 1091 2828 1075 2799 1069 2782C 1063 2764 1051 2750 1043 2750C 1035 2750 994 2786 952 2831C 845 2945 690 3059 658 3047C 651 3045 668 3031 696 3017C 763 2983 882 2888 948 2816C 976 2784 1000 2755 1000 2751C 1000 2747 984 2738 965 2731C 946 2724 906 2696 876 2669C 829 2627 818 2620 801 2629C 771 2645 716 2715 682 2778C 622 2891 580 3089 613 3104C 636 3115 775 3101 848 3080zM1346 2907C 1348 2905 1342 2884 1334 2860C 1323 2829 1319 2789 1322 2733C 1325 2654 1324 2650 1296 2621C 1273 2597 1258 2590 1227 2590C 1193 2590 1180 2597 1139 2638C 1087 2690 1074 2722 1084 2775C 1097 2844 1234 2927 1314 2914C 1330 2912 1345 2909 1346 2907zM1542 2901C 1638 2876 1729 2830 1785 2779L1785 2779L1829 2738L1795 2704C 1776 2685 1757 2658 1754 2645C 1748 2621 1745 2620 1696 2626C 1668 2630 1644 2633 1644 2634C 1643 2634 1619 2664 1591 2700C 1533 2772 1466 2830 1441 2829C 1428 2829 1429 2826 1445 2817C 1479 2796 1584 2693 1602 2662C 1619 2633 1619 2633 1594 2619C 1570 2607 1568 2601 1573 2559C 1578 2516 1577 2511 1557 2506C 1544 2503 1516 2485 1493 2465L1493 2465L1452 2430L1425 2462C 1371 2525 1337 2641 1336 2755C 1335 2914 1376 2943 1542 2901zM2105 2789C 2125 2728 2072 2542 2018 2483L2018 2483L1997 2461L1965 2485C 1948 2499 1917 2516 1897 2523L1897 2523L1860 2535L1894 2585C 1934 2644 1991 2705 2040 2742C 2059 2757 2072 2772 2068 2775C 2057 2786 1957 2696 1908 2630C 1821 2512 1831 2522 1817 2544C 1811 2555 1794 2574 1782 2586C 1753 2614 1759 2641 1804 2688C 1844 2731 1889 2758 1964 2786C 2044 2816 2096 2817 2105 2789zM1071 2704C 1076 2689 1094 2660 1110 2640C 1168 2567 1134 2490 1039 2476C 966 2465 790 2509 790 2539C 790 2555 848 2627 889 2662C 943 2708 987 2729 1028 2730C 1054 2730 1062 2725 1071 2704zM795 2583C 770 2545 776 2522 819 2500C 841 2490 877 2478 899 2474C 922 2470 943 2464 945 2460C 948 2456 918 2417 880 2374C 793 2277 700 2142 700 2115C 700 2102 710 2113 729 2146C 765 2212 838 2307 917 2391C 976 2453 984 2458 1031 2462C 1061 2465 1093 2476 1111 2489C 1148 2517 1163 2508 1196 2435C 1241 2339 1223 2256 1138 2164C 1069 2090 960 2029 844 2000C 751 1976 693 1975 641 1996C 591 2016 580 2045 580 2160C 580 2316 645 2501 730 2589C 765 2625 772 2629 790 2618C 808 2607 808 2603 795 2583zM1344 2587L1351 2559L1321 2575C 1292 2590 1291 2591 1307 2610C 1326 2632 1335 2627 1344 2587zM1711 2609C 1803 2578 1828 2501 1766 2436C 1722 2389 1696 2390 1649 2439C 1612 2479 1573 2570 1585 2590C 1602 2618 1659 2626 1711 2609zM1246 2575C 1310 2572 1355 2548 1376 2507C 1385 2490 1404 2461 1417 2443L1417 2443L1442 2411L1418 2350L1395 2289L1353 2294C 1329 2297 1295 2306 1276 2314C 1247 2326 1241 2334 1235 2372C 1227 2420 1209 2460 1174 2506C 1161 2523 1150 2549 1150 2565C 1150 2589 1153 2591 1173 2585C 1185 2581 1218 2576 1246 2575zM1935 2485C 1957 2472 1986 2450 2000 2435L2000 2435L2025 2408L2002 2389C 1976 2368 1890 2340 1853 2340C 1828 2340 1780 2380 1780 2402C 1780 2419 1822 2503 1835 2513C 1849 2523 1888 2513 1935 2485zM1604 2472C 1612 2457 1630 2433 1645 2418L1645 2418L1671 2391L1641 2375C 1605 2357 1480 2242 1480 2228C 1480 2222 1508 2243 1541 2275C 1617 2345 1668 2379 1706 2386C 1722 2389 1743 2393 1753 2396C 1775 2403 1776 2375 1754 2330C 1745 2312 1735 2278 1732 2254C 1728 2212 1726 2210 1672 2190C 1606 2165 1533 2150 1479 2150C 1431 2150 1410 2177 1410 2240C 1410 2332 1474 2450 1541 2483C 1586 2505 1587 2505 1604 2472zM2084 2423C 2128 2380 2158 2328 2185 2246C 2209 2173 2217 2087 2202 2063C 2177 2023 2038 2019 1936 2055C 1784 2108 1713 2219 1765 2321C 1778 2345 1784 2349 1800 2340C 1810 2335 1838 2330 1862 2330C 1902 2330 1913 2324 1995 2251C 2045 2208 2094 2158 2105 2141C 2131 2101 2147 2100 2123 2141C 2106 2171 2030 2247 1961 2303C 1943 2318 1929 2332 1931 2334C 1933 2336 1953 2347 1976 2358C 2035 2388 2047 2406 2025 2430C 2004 2453 2013 2474 2038 2461C 2048 2456 2068 2439 2084 2423zM1340 2192C 1365 2139 1422 2030 1467 1951C 1553 1801 1557 1780 1505 1780C 1487 1780 1474 1798 1432 1890C 1374 2012 1330 2120 1294 2224C 1266 2305 1267 2301 1283 2294C 1289 2292 1315 2246 1340 2192zM1376 2270C 1382 2270 1390 2249 1394 2223C 1403 2155 1421 2140 1494 2140C 1528 2140 1582 2147 1614 2155C 1647 2164 1674 2169 1676 2167C 1682 2161 1658 2085 1608 1957C 1564 1843 1556 1831 1545 1847C 1498 1915 1320 2254 1320 2277C 1320 2280 1330 2280 1343 2276C 1355 2273 1370 2270 1376 2270zM1690 2073C 1661 1949 1621 1822 1610 1815C 1605 1812 1594 1813 1586 1817C 1575 1823 1580 1843 1611 1920C 1633 1972 1662 2053 1677 2100C 1710 2205 1718 2190 1690 2073z" stroke="none" fill="#000000" fill-rule="nonzero" />
        <path d="M1258 2802C 1209 2757 1144 2670 1159 2670C 1164 2670 1185 2692 1205 2720C 1225 2747 1258 2783 1278 2800C 1298 2816 1311 2832 1308 2836C 1304 2839 1282 2824 1258 2802z" stroke="none" fill="#000000" fill-rule="nonzero" />
        <path d="M946 2597C 903 2580 872 2564 879 2562C 888 2559 991 2593 1055 2620C 1073 2628 1073 2629 1050 2629C 1036 2629 990 2615 946 2597z" stroke="none" fill="#000000" fill-rule="nonzero" />
        <path d="M1635 2561C 1632 2556 1638 2549 1647 2546C 1657 2543 1684 2522 1708 2499C 1731 2476 1754 2461 1758 2465C 1762 2469 1745 2490 1720 2512C 1666 2560 1643 2573 1635 2561z" stroke="none" fill="#000000" fill-rule="nonzero" />
        <path d="M1830 2443C 1830 2434 1960 2406 1967 2414C 1970 2417 1955 2423 1934 2429C 1860 2447 1830 2452 1830 2443z" stroke="none" fill="#000000" fill-rule="nonzero" />
        <path d="M2560 2585C 2560 2463 2562 2440 2575 2440C 2587 2440 2590 2454 2590 2510L2590 2510L2590 2580L2630 2580C 2659 2580 2670 2584 2670 2595C 2670 2606 2659 2610 2630 2610L2630 2610L2590 2610L2590 2655L2590 2700L2655 2700C 2706 2700 2720 2703 2720 2715C 2720 2727 2704 2730 2640 2730L2640 2730L2560 2730L2560 2585z" stroke="none" fill="#000000" fill-rule="nonzero" />
        <path d="M2780 2585L2780 2440L2850 2440C 2906 2440 2920 2443 2920 2455C 2920 2467 2907 2470 2860 2470L2860 2470L2800 2470L2800 2600C 2800 2680 2796 2730 2790 2730C 2784 2730 2780 2675 2780 2585z" stroke="none" fill="#000000" fill-rule="nonzero" />
        <path d="M3022 2710C 2979 2684 2946 2611 2953 2563C 2965 2490 3024 2440 3098 2440C 3194 2440 3250 2495 3250 2588C 3250 2635 3246 2645 3211 2682C 3176 2720 3168 2724 3114 2727C 3067 2730 3048 2727 3022 2710zM3135 2700C 3160 2700 3209 2649 3219 2614C 3243 2527 3156 2446 3067 2471C 2961 2500 2952 2644 3052 2690C 3076 2701 3101 2707 3108 2705C 3116 2702 3128 2700 3135 2700z" stroke="none" fill="#000000" fill-rule="nonzero" />
        <path d="M3300 2722C 3300 2714 3366 2477 3376 2450C 3379 2441 3399 2478 3422 2535C 3444 2590 3465 2638 3468 2642C 3472 2646 3493 2604 3514 2550C 3536 2495 3556 2450 3560 2450C 3571 2450 3645 2718 3637 2727C 3624 2739 3612 2716 3590 2635C 3578 2591 3564 2549 3560 2541C 3555 2532 3540 2560 3515 2624C 3495 2677 3475 2720 3471 2720C 3468 2720 3450 2681 3431 2632C 3413 2584 3394 2541 3390 2537C 3386 2532 3370 2574 3355 2629C 3337 2692 3322 2730 3313 2730C 3306 2730 3300 2726 3300 2722z" stroke="none" fill="#000000" fill-rule="nonzero" />
        <path d="M3700 2585L3700 2440L3780 2440C 3844 2440 3860 2443 3860 2455C 3860 2467 3846 2470 3795 2470L3795 2470L3730 2470L3730 2525L3730 2580L3770 2580C 3799 2580 3810 2584 3810 2595C 3810 2606 3799 2610 3770 2610L3770 2610L3730 2610L3730 2655L3730 2700L3800 2700C 3856 2700 3870 2703 3870 2715C 3870 2727 3854 2730 3785 2730L3785 2730L3700 2730L3700 2585z" stroke="none" fill="#000000" fill-rule="nonzero" />
        <path d="M3930 2586C 3930 2500 3934 2440 3940 2440C 3945 2440 3950 2470 3952 2507C 3956 2601 3975 2602 4031 2511C 4059 2466 4081 2440 4092 2440C 4107 2440 4103 2451 4070 2504C 4024 2576 4023 2580 4048 2580C 4098 2580 4120 2664 4082 2703C 4066 2719 4045 2725 3995 2728L3995 2728L3930 2732L3930 2586zM4065 2676C 4095 2631 4054 2594 3984 2602C 3957 2605 3955 2608 3952 2653L3952 2653L3949 2700L3999 2700C 4041 2700 4052 2696 4065 2676z" stroke="none" fill="#000000" fill-rule="nonzero" />
        <path d="M4140 2725C 4140 2714 4213 2465 4219 2452C 4223 2444 4242 2479 4265 2537C 4286 2591 4306 2639 4310 2643C 4314 2648 4328 2623 4340 2588C 4353 2553 4372 2505 4383 2480L4383 2480L4402 2435L4441 2570C 4483 2716 4486 2734 4468 2728C 4462 2726 4445 2683 4431 2633C 4417 2583 4402 2539 4399 2536C 4396 2532 4376 2575 4354 2630C 4333 2684 4313 2726 4309 2722C 4306 2718 4288 2677 4270 2630C 4252 2583 4234 2541 4230 2537C 4226 2532 4210 2574 4195 2629C 4177 2695 4163 2730 4154 2730C 4146 2730 4140 2728 4140 2725z" stroke="none" fill="#000000" fill-rule="nonzero" />
        <path d="M4599 2707C 4477 2626 4532 2440 4678 2440C 4769 2440 4830 2497 4830 2581C 4830 2699 4696 2772 4599 2707zM4727 2695C 4796 2675 4824 2570 4774 2511C 4704 2427 4560 2473 4560 2579C 4560 2629 4596 2682 4640 2697C 4674 2708 4682 2708 4727 2695z" stroke="none" fill="#000000" fill-rule="nonzero" />
        <path d="M4890 2588C 4890 2463 4892 2440 4905 2440C 4917 2440 4920 2459 4920 2548L4920 2548L4921 2655L4958 2615C 4978 2593 5023 2543 5057 2505L5057 2505L5119 2435L5120 2583C 5120 2706 5118 2730 5105 2730C 5093 2730 5090 2709 5088 2620L5088 2620L5085 2511L5033 2573C 5004 2607 4960 2658 4935 2685L4935 2685L4891 2735L4890 2588z" stroke="none" fill="#000000" fill-rule="nonzero" />
        <path d="M5190 2585L5190 2440L5255 2440C 5380 2440 5434 2488 5427 2593C 5421 2687 5364 2730 5243 2730L5243 2730L5190 2730L5190 2585zM5340 2685C 5356 2677 5376 2660 5384 2648C 5402 2623 5405 2548 5390 2519C 5374 2490 5326 2470 5270 2470L5270 2470L5220 2470L5220 2585L5220 2700L5265 2700C 5291 2700 5324 2693 5340 2685z" stroke="none" fill="#000000" fill-rule="nonzero" />
        <path d="M5490 2585L5490 2440L5570 2440C 5634 2440 5650 2443 5650 2455C 5650 2467 5636 2470 5585 2470L5585 2470L5520 2470L5520 2525L5520 2580L5560 2580C 5589 2580 5600 2584 5600 2595C 5600 2606 5589 2610 5560 2610L5560 2610L5520 2610L5520 2655L5520 2700L5585 2700C 5636 2700 5650 2703 5650 2715C 5650 2727 5634 2730 5570 2730L5570 2730L5490 2730L5490 2585z" stroke="none" fill="#000000" fill-rule="nonzero" />
        <path d="M5720 2586C 5720 2500 5724 2440 5730 2440C 5735 2440 5740 2470 5742 2507C 5746 2602 5765 2603 5820 2511C 5848 2464 5868 2440 5881 2440C 5896 2440 5893 2450 5858 2505C 5836 2541 5819 2572 5821 2573C 5823 2574 5839 2582 5855 2590C 5880 2603 5886 2613 5888 2646C 5892 2703 5867 2723 5784 2728L5784 2728L5720 2732L5720 2586zM5854 2678C 5874 2649 5874 2644 5850 2620C 5836 2606 5817 2600 5785 2600L5785 2600L5740 2600L5740 2650L5740 2700L5789 2700C 5829 2700 5842 2696 5854 2678z" stroke="none" fill="#000000" fill-rule="nonzero" />
	</g>
</g>
</svg>